<svg xmlns="http://www.w3.org/2000/svg" width="24" height="24" viewBox="0 0 24 24">
  <path id="velog" d="M3,0A2.993,2.993,0,0,0,0,3V21a2.993,2.993,0,0,0,3,3H21a2.993,2.993,0,0,0,3-3V3a2.993,2.993,0,0,0-3-3ZM9.883,6.25a1.026,1.026,0,0,1,1.125.9l1.463,8.3q.7-.922,1.146-1.553A14.1,14.1,0,0,0,14.9,11.627a5.464,5.464,0,0,0,.608-2.3,1.357,1.357,0,0,0-.338-.967A5.813,5.813,0,0,0,13.977,7.4a2.753,2.753,0,0,1,2.25-1.148,1.712,1.712,0,0,1,1.193.428,1.572,1.572,0,0,1,.494,1.26,7.591,7.591,0,0,1-1.17,3.488,53.238,53.238,0,0,1-4.431,6.232l-2.227.156L8.375,8.186H6.125V7.24q.9-.293,2.115-.63a7.262,7.262,0,0,1,1.643-.36Z" fill="#fff"/>
</svg>
